<svg xmlns="http://www.w3.org/2000/svg" viewBox="0 0 1024 1024">
  <defs>
    <linearGradient id="bg" x1="150" y1="70" x2="875" y2="960" gradientUnits="userSpaceOnUse">
      <stop offset="0" stop-color="#07142f"/>
      <stop offset="0.54" stop-color="#0e244f"/>
      <stop offset="1" stop-color="#0d3d36"/>
    </linearGradient>
    <linearGradient id="leaf" x1="330" y1="360" x2="720" y2="760" gradientUnits="userSpaceOnUse">
      <stop offset="0" stop-color="#9be8ca"/>
      <stop offset="1" stop-color="#38b979"/>
    </linearGradient>
    <radialGradient id="glow" cx="50%" cy="45%" r="45%">
      <stop offset="0" stop-color="#7de5ba" stop-opacity="0.28"/>
      <stop offset="1" stop-color="#7de5ba" stop-opacity="0"/>
    </radialGradient>
    <filter id="softShadow" x="-20%" y="-20%" width="140%" height="140%">
      <feDropShadow dx="0" dy="18" stdDeviation="24" flood-color="#020817" flood-opacity="0.35"/>
    </filter>
  </defs>

  <rect width="1024" height="1024" rx="228" fill="url(#bg)"/>
  <circle cx="512" cy="510" r="390" fill="url(#glow)"/>

  <g opacity="0.95">
    <circle cx="222" cy="214" r="7" fill="#f6f2c8"/>
    <circle cx="764" cy="236" r="6" fill="#f6f2c8"/>
    <circle cx="828" cy="500" r="5" fill="#f6f2c8"/>
    <circle cx="292" cy="558" r="5" fill="#f6f2c8"/>
    <path d="M808 342l9 22 22 9-22 9-9 22-9-22-22-9 22-9z" fill="#fff7cf"/>
    <path d="M244 400l7 17 17 7-17 7-7 17-7-17-17-7 17-7z" fill="#fff7cf"/>
  </g>

  <g filter="url(#softShadow)">
    <path d="M300 806c58-98 119-153 185-166 72-14 145 23 219 110 39 46 85 65 138 58-41 54-101 90-177 106-147 31-269-5-365-108z" fill="#102d50" opacity="0.7"/>
    <path d="M694 154c-48 25-81 76-81 134 0 84 68 151 151 151 24 0 47-6 67-16-26 50-78 84-139 84-87 0-157-70-157-157 0-89 70-164 159-196z" fill="#fff2bd"/>

    <path d="M512 706c0-110 0-217 0-322" fill="none" stroke="url(#leaf)" stroke-width="42" stroke-linecap="round"/>

    <path d="M507 477c-84-15-147-83-160-169 93 4 169 58 202 140 6 15-12 32-42 29z" fill="none" stroke="url(#leaf)" stroke-width="38" stroke-linecap="round" stroke-linejoin="round"/>
    <path d="M519 477c84-15 147-83 160-169-93 4-169 58-202 140-6 15 12 32 42 29z" fill="none" stroke="url(#leaf)" stroke-width="38" stroke-linecap="round" stroke-linejoin="round"/>
    <path d="M512 384c-52-63-55-145 0-214 55 69 52 151 0 214z" fill="none" stroke="url(#leaf)" stroke-width="38" stroke-linecap="round" stroke-linejoin="round"/>

    <path d="M511 704c-62-62-107-73-179-51 25-82 99-136 180-136 81 0 155 54 180 136-74-22-119-11-181 51z" fill="url(#leaf)" opacity="0.18"/>
  </g>
</svg>
